<?xml version="1.0" standalone="no"?>
<!DOCTYPE svg PUBLIC "-//W3C//DTD SVG 20010904//EN"
 "http://www.w3.org/TR/2001/REC-SVG-20010904/DTD/svg10.dtd">
<svg version="1.0" xmlns="http://www.w3.org/2000/svg"
 width="213.000000pt" height="237.000000pt" viewBox="0 0 213.000000 237.000000"
 preserveAspectRatio="xMidYMid meet">

<g transform="translate(0.000000,237.000000) scale(0.100000,-0.100000)"
fill="#000000" stroke="none">
<path d="M945 2000 c-7 -32 -1 -50 18 -50 8 0 8 3 -2 9 -9 6 -11 18 -6 40 4
17 4 31 2 31 -3 0 -8 -13 -12 -30z"/>
<path d="M800 2004 c14 -10 31 -24 39 -33 12 -14 13 -14 7 2 -3 10 -6 26 -6
35 0 12 -3 13 -8 5 -5 -8 -13 -9 -22 -3 -26 17 -35 11 -10 -6z"/>
<path d="M1004 2003 c-3 -10 -10 -26 -15 -35 -6 -12 -6 -18 1 -18 5 0 10 1 10
3 0 1 4 17 9 35 10 33 5 46 -5 15z"/>
<path d="M1037 2006 c-10 -26 -9 -44 2 -27 6 10 12 3 21 -24 14 -42 25 -37 34
15 l6 35 -12 -30 -11 -30 -17 40 c-13 31 -18 35 -23 21z"/>
<path d="M750 1998 c-12 -8 -12 -9 3 -4 14 4 18 1 15 -11 -5 -25 -38 -30 -39
-6 0 10 -3 13 -5 6 -5 -11 22 -73 32 -73 2 0 0 9 -6 20 -8 15 -8 20 2 21 18 2
20 1 43 -7 19 -7 20 -6 1 8 -10 8 -16 20 -13 25 11 17 -16 34 -33 21z"/>
<path d="M1116 1964 c-4 -20 -5 -38 -3 -40 3 -3 8 11 11 32 4 20 5 38 3 40 -3
3 -8 -11 -11 -32z"/>
<path d="M1152 1960 c0 -19 2 -27 5 -17 2 9 2 25 0 35 -3 9 -5 1 -5 -18z"/>
<path d="M668 1964 c-29 -15 -38 -27 -14 -18 9 4 20 -6 31 -25 8 -17 18 -31
21 -31 2 0 -3 14 -11 31 -13 24 -14 34 -4 45 14 17 11 17 -23 -2z"/>
<path d="M1193 1950 c-9 -16 -21 -30 -25 -30 -4 0 -8 -5 -8 -11 0 -8 4 -8 13
-1 14 12 50 72 43 72 -3 0 -13 -13 -23 -30z"/>
<path d="M1224 1935 c-3 -20 -4 -39 0 -42 3 -4 6 1 6 10 0 11 9 17 23 18 16 1
18 2 5 6 -21 5 -24 29 -5 36 7 3 5 6 -5 6 -12 1 -19 -10 -24 -34z"/>
<path d="M1301 1913 c-11 -39 -8 -60 4 -24 7 22 35 18 35 -4 0 -8 5 -17 12
-21 8 -5 9 -2 5 10 -4 9 -1 26 6 37 10 16 9 21 -3 29 -30 19 -49 11 -59 -27z
m57 10 c2 -8 -5 -13 -17 -13 -21 0 -35 13 -24 24 10 10 36 3 41 -11z"/>
<path d="M624 1925 c3 -8 9 -22 12 -30 5 -12 -2 -11 -30 6 -41 24 -44 19 -15
-31 18 -32 19 -26 3 15 -5 12 2 11 30 -6 20 -11 36 -18 36 -15 0 14 -29 76
-36 76 -3 0 -3 -7 0 -15z"/>
<path d="M1397 1923 c-13 -13 -7 -32 13 -38 23 -7 27 -35 5 -35 -7 0 -19 8
-24 18 -9 15 -10 16 -11 0 0 -9 9 -19 20 -23 42 -13 55 23 18 48 -29 19 -15
36 15 18 20 -13 21 -13 8 2 -14 18 -33 22 -44 10z"/>
<path d="M1466 1874 c-4 -20 -5 -38 -3 -40 3 -3 8 11 11 32 4 20 5 38 3 40 -3
3 -8 -11 -11 -32z"/>
<path d="M1508 1902 c9 -6 12 -22 8 -48 l-5 -39 10 38 c7 22 17 37 27 37 22 0
12 6 -23 14 -19 4 -25 3 -17 -2z"/>
<path d="M516 1887 c-17 -13 -17 -15 -2 -45 18 -36 33 -39 62 -16 18 15 18 15
-3 5 -12 -6 -26 -11 -32 -11 -20 0 -11 27 12 39 17 9 18 10 2 6 -33 -11 -37
-10 -42 1 -2 6 7 16 19 22 13 6 18 11 12 11 -5 1 -18 -5 -28 -12z"/>
<path d="M685 1784 c-115 -58 -211 -107 -213 -109 -2 -2 34 -12 80 -23 46 -10
85 -16 88 -12 7 10 147 80 160 80 6 0 10 -26 10 -60 0 -33 -4 -60 -9 -60 -4 0
-6 -11 -4 -24 l5 -23 -236 55 c-129 31 -233 59 -230 64 3 4 -2 5 -10 2 -14 -5
-16 -60 -16 -475 0 -258 3 -469 8 -469 4 0 185 -43 404 -96 l396 -95 281 141
281 140 0 465 c0 256 -2 465 -5 465 -2 0 -130 -61 -283 -135 l-278 -136 -72
18 c-55 13 -72 21 -72 34 0 10 6 20 13 22 10 4 10 6 0 6 -10 1 -13 28 -13 99
l0 99 189 -45 c105 -25 188 -49 185 -53 -2 -4 36 11 85 34 66 31 85 44 73 49
-14 6 -604 149 -606 147 -1 0 -95 -48 -211 -105z m833 -543 c-2 -170 -5 -312
-8 -314 -5 -5 -580 130 -588 138 -3 2 7 10 22 16 l26 12 0 153 0 153 23 -8
c21 -8 22 -13 25 -151 2 -108 -1 -145 -10 -152 -10 -6 -10 -8 2 -8 8 0 51 -9
95 -19 l80 -18 0 176 0 175 155 78 c85 42 161 77 168 77 11 1 13 -57 10 -308z
m-868 231 l155 -37 0 -175 0 -175 45 -11 45 -10 -209 -102 c-115 -56 -210
-102 -212 -102 -2 0 -3 146 -4 325 0 256 2 325 12 325 7 -1 83 -17 168 -38z
m319 -534 l51 -11 0 -99 c0 -86 -2 -98 -17 -99 -17 -1 -17 -2 0 -6 17 -5 25
-43 8 -43 -10 0 -542 126 -575 137 -18 5 -17 7 6 19 23 12 37 11 103 -4 l76
-18 132 68 c73 37 140 67 149 68 9 0 39 -5 67 -12z m620 -43 c5 -6 24 4 -172
-93 -92 -45 -173 -79 -179 -76 -6 4 -8 3 -5 -3 5 -8 -31 -33 -48 -33 -2 0 -4
43 -4 95 -1 110 -8 105 110 75 l79 -20 67 35 c55 28 75 34 108 30 21 -3 41 -8
44 -10z"/>
<path d="M1258 1023 c7 -3 16 -2 19 1 4 3 -2 6 -13 5 -11 0 -14 -3 -6 -6z"/>
<path d="M1298 1013 c7 -3 16 -2 19 1 4 3 -2 6 -13 5 -11 0 -14 -3 -6 -6z"/>
<path d="M600 990 c-19 -11 -30 -19 -25 -19 6 0 26 8 45 19 19 11 31 19 25 19
-5 0 -26 -8 -45 -19z"/>
<path d="M1332 831 c-11 -7 -11 -9 2 -14 9 -4 16 -11 16 -17 0 -6 -5 -8 -12
-4 -7 5 -8 3 -3 -5 5 -9 10 -10 18 -2 7 7 7 14 -1 24 -7 8 -9 17 -5 20 9 10 1
8 -15 -2z"/>
<path d="M1206 737 c3 -10 9 -15 12 -12 3 3 0 11 -7 18 -10 9 -11 8 -5 -6z"/>
<path d="M1248 1883 c7 -3 16 -2 19 1 4 3 -2 6 -13 5 -11 0 -14 -3 -6 -6z"/>
<path d="M1575 1874 c5 -10 8 -32 8 -48 0 -25 1 -26 10 -10 5 11 19 30 31 44
21 24 21 25 0 7 -25 -21 -34 -22 -34 -3 0 8 -5 18 -12 22 -8 5 -9 2 -3 -12z"/>
<path d="M481 1836 l-1 -39 -25 23 c-14 13 -27 21 -30 18 -3 -3 9 -18 27 -33
l33 -28 3 27 c2 14 1 36 -1 49 -2 13 -5 6 -6 -17z"/>
<path d="M354 1795 c-8 -33 12 -57 45 -53 50 6 36 78 -15 78 -17 0 -25 -7 -30
-25z m61 -15 c0 -18 -6 -26 -23 -28 -24 -4 -38 18 -28 44 3 9 15 14 28 12 17
-2 23 -10 23 -28z"/>
<path d="M286 1774 c-20 -20 -20 -38 0 -59 22 -21 58 -15 62 10 4 20 3 20 -11
1 -16 -21 -44 -17 -53 9 -8 20 15 48 33 41 8 -3 11 -1 8 4 -9 14 -21 12 -39
-6z"/>
<path d="M1110 1545 c-14 -8 -20 -14 -15 -14 6 0 21 6 35 14 14 8 21 14 15 14
-5 0 -21 -6 -35 -14z"/>
<path d="M1615 714 c17 -16 31 -29 32 -29 1 1 -2 14 -6 31 -5 16 -10 23 -10
16 -1 -10 -6 -10 -23 -1 -18 9 -17 6 7 -17z"/>
<path d="M1548 714 c-29 -15 -38 -27 -14 -18 9 3 20 -5 30 -23 8 -15 15 -24
16 -20 0 5 -5 17 -11 28 -7 15 -7 24 2 35 14 17 11 17 -23 -2z"/>
<path d="M296 705 c-3 -9 -6 -22 -5 -28 0 -7 5 -1 10 12 5 13 8 26 5 28 -2 2
-6 -3 -10 -12z"/>
<path d="M346 702 c-2 -4 -1 -14 5 -22 7 -12 9 -10 9 8 0 23 -5 28 -14 14z"/>
<path d="M397 680 c3 -12 0 -20 -6 -20 -7 0 -9 5 -6 10 3 6 4 10 1 10 -3 0
-10 -9 -16 -20 -9 -16 -8 -19 6 -13 9 3 20 0 25 -8 6 -10 9 -2 9 24 0 20 -4
37 -9 37 -5 0 -7 -9 -4 -20z"/>
<path d="M311 671 c-1 -20 1 -21 14 -11 16 14 21 25 6 16 -5 -4 -12 0 -14 6
-3 7 -6 2 -6 -11z"/>
<path d="M435 671 c-4 -13 -4 -25 -1 -28 3 -4 6 2 7 13 0 18 1 18 9 -1 6 -13
9 -15 9 -5 0 8 -3 21 -8 29 -7 11 -10 9 -16 -8z"/>
<path d="M1476 677 c-17 -13 -17 -15 -2 -45 15 -29 18 -30 41 -20 14 6 23 13
21 15 -2 3 -13 0 -24 -6 -29 -15 -36 10 -8 27 20 11 19 12 -6 6 -34 -7 -37 9
-5 24 12 6 17 11 11 11 -5 1 -18 -5 -28 -12z"/>
<path d="M481 664 c0 -11 3 -14 6 -6 3 7 2 16 -1 19 -3 4 -6 -2 -5 -13z"/>
<path d="M501 644 c0 -11 3 -14 6 -6 3 7 2 16 -1 19 -3 4 -6 -2 -5 -13z"/>
<path d="M566 626 c-4 -15 -5 -31 -1 -34 3 -3 5 0 5 6 0 7 8 12 18 12 10 0 13
3 6 8 -6 4 -13 14 -16 22 -3 9 -7 4 -12 -14z"/>
<path d="M598 643 c7 -3 16 -2 19 1 4 3 -2 6 -13 5 -11 0 -14 -3 -6 -6z"/>
<path d="M1430 645 c0 -13 24 -55 32 -55 5 0 2 14 -7 30 -14 27 -25 38 -25 25z"/>
<path d="M466 631 c-4 -7 -5 -15 -2 -18 9 -9 19 4 14 18 -4 11 -6 11 -12 0z"/>
<path d="M622 602 l-23 -37 25 30 26 30 1 -35 c2 -30 3 -31 6 -8 2 15 1 34 -4
42 -6 11 -13 6 -31 -22z"/>
<path d="M536 614 c-4 -9 -12 -14 -22 -10 -8 3 -12 2 -9 -4 10 -16 32 -12 39
6 4 9 5 19 2 21 -2 2 -6 -4 -10 -13z"/>
<path d="M1367 623 c-16 -15 -6 -53 16 -63 21 -10 21 -10 3 4 -12 10 -17 23
-14 41 6 27 5 29 -5 18z"/>
<path d="M685 609 c-4 -6 -4 -13 -1 -16 3 -4 6 -1 6 6 0 9 9 12 25 9 13 -3 22
-1 19 3 -7 13 -42 11 -49 -2z"/>
<path d="M760 600 c8 -5 22 -9 30 -9 10 0 8 3 -5 9 -27 12 -43 12 -25 0z"/>
<path d="M806 584 c-10 -27 -7 -62 8 -67 14 -6 36 10 36 27 0 5 -6 1 -14 -10
-14 -18 -15 -18 -21 -1 -4 9 -4 28 -1 42 7 28 2 34 -8 9z"/>
<path d="M1282 578 c-6 -6 -12 -18 -12 -24 0 -15 28 -44 42 -44 6 0 0 8 -13
18 -28 24 -20 55 13 50 18 -2 23 -9 23 -30 -1 -16 3 -24 8 -19 5 5 7 19 5 32
-3 27 -45 38 -66 17z"/>
<path d="M1416 573 c-6 -14 -5 -15 5 -6 7 7 10 15 7 18 -3 3 -9 -2 -12 -12z"/>
<path d="M761 564 c0 -11 3 -14 6 -6 3 7 2 16 -1 19 -3 4 -6 -2 -5 -13z"/>
<path d="M877 573 c-2 -5 -7 -21 -11 -38 -5 -22 -4 -26 4 -15 5 8 10 23 10 32
0 9 6 19 13 21 9 4 9 6 0 6 -6 1 -14 -2 -16 -6z"/>
<path d="M914 562 c3 -6 0 -14 -7 -19 -9 -5 -12 -15 -8 -26 5 -14 8 -12 18 13
8 21 8 32 1 37 -7 3 -8 1 -4 -5z"/>
<path d="M705 550 c-3 -6 1 -7 9 -4 18 7 21 14 7 14 -6 0 -13 -4 -16 -10z"/>
<path d="M941 534 c0 -11 3 -14 6 -6 3 7 2 16 -1 19 -3 4 -6 -2 -5 -13z"/>
<path d="M965 531 c-4 -13 -4 -25 -1 -28 3 -4 6 2 6 13 0 16 2 17 10 4 5 -8
10 -10 10 -5 0 6 -4 16 -9 24 -7 11 -10 9 -16 -8z"/>
<path d="M1207 543 c-17 -17 -5 -33 24 -33 24 0 30 -4 25 -16 -3 -8 -2 -12 4
-9 22 14 10 35 -20 35 -30 0 -41 14 -17 23 6 3 7 6 1 6 -6 1 -14 -2 -17 -6z"/>
<path d="M1011 524 c0 -11 3 -14 6 -6 3 7 2 16 -1 19 -3 4 -6 -2 -5 -13z"/>
<path d="M990 491 c0 -6 5 -13 10 -16 6 -3 10 1 10 9 0 9 -4 16 -10 16 -5 0
-10 -4 -10 -9z"/>
<path d="M1020 494 c0 -13 18 -39 24 -34 2 3 -2 14 -10 24 -8 11 -14 16 -14
10z"/>
<path d="M1210 486 c0 -2 7 -7 16 -10 8 -3 12 -2 9 4 -6 10 -25 14 -25 6z"/>
</g>
</svg>
